<!--?xml version="1.0" encoding="utf-8"?-->
<!-- Generator: Adobe Illustrator 15.1.0, SVG Export Plug-In . SVG Version: 6.00 Build 0)  -->

<svg version="1.1" id="_x32_" xmlns="http://www.w3.org/2000/svg" xmlns:xlink="http://www.w3.org/1999/xlink" x="0px" y="0px" width="512px" height="512px" viewBox="0 0 512 512" style="width: 48px; height: 48px; opacity: 1;" xml:space="preserve">
<style type="text/css">

	.st0{fill:#4B4B4B;}

</style>
<g>
	<path class="st0" d="M404.445,405.002c0-5.984,0-29.875,0-42.469c-9.531,0.438-21.328-0.719-29.797-2.078l-2.031,0.391
		c0,0,0,47.25,0,57.516c0,19.516-7.5,42.109-17.766,42.109v-17.125c0-3.563-1.641-6.922-4.422-9.125
		c-2.797-2.219-6.438-3.031-9.906-2.203l-20.344,4.781c-5.266,1.234-8.984,5.938-8.984,11.328v21.188
		c0,2.375-1.781,4.359-4.141,4.625l0.297-0.031c-1.328,0.156-2.641-0.266-3.625-1.156c-0.984-0.875-1.563-2.141-1.563-3.469v-19.078
		c0-6.438-5.219-11.641-11.641-11.641H272.21c-6.422,0-11.641,5.203-11.641,11.641v22.516c0,2.234-1.578,4.141-3.766,4.563
		l0.094-0.016c-0.594,0.125-1.203,0.125-1.781,0l0.078,0.016c-2.172-0.422-3.75-2.328-3.75-4.563v-22.516
		c0-6.438-5.219-11.641-11.656-11.641h-18.297c-6.438,0-11.656,5.203-11.656,11.641v19.078c0,1.328-0.563,2.594-1.547,3.469
		c-0.984,0.891-2.313,1.313-3.625,1.156l0.281,0.031c-2.344-0.266-4.125-2.25-4.125-4.625v-21.188
		c0-5.391-3.719-10.094-8.984-11.328l-20.359-4.781c-3.469-0.828-7.109-0.016-9.906,2.203c-2.781,2.203-4.406,5.563-4.406,9.125
		v17.125c-10.266,0-17.766-22.594-17.766-42.109c0-10.266,0-57.516,0-57.516l-2.031-0.391c-8.484,1.359-20.281,2.516-29.813,2.078
		c0,12.594,0,36.484,0,42.469c0,8.219-5.703,47.234,16.438,76.016c30.078,39.094,98.203,30.266,132.016,29.828
		c33.813,0.438,101.938,9.266,132-29.828C410.148,452.236,404.445,413.221,404.445,405.002z" style="fill: rgb(75, 75, 75);"></path>
	<path class="st0" d="M256.007,0.002c-118.844,0-214.594,86.266-210.5,205.422l6.172,78.047
		c4.109,57.516,49.391,74.125,86.188,63.141c21.766-6.281,19.297,4.672,19.297,39.578c0,11.938-0.313,21.563,8.938,27.734
		c9.25,6.156,17.938,4.094,23.531,4.094s11.188-2.766,11.188-11.547c0-11.188,0-14.25,0-14.25c0-2.844,1.922-5.141,4.516-5.922
		c2.594,0.781,4.5,3.078,4.5,5.922v19.281c0,5.797,4.703,10.484,10.484,10.484h20.641c5.781,0,10.484-4.688,10.484-10.484
		l0.234-19.359c0.031-2.75,1.844-5,4.328-5.813c2.469,0.813,4.297,3.063,4.328,5.813l0.234,19.359
		c0,5.797,4.688,10.484,10.484,10.484h20.641c5.781,0,10.469-4.688,10.469-10.484v-19.281c0-2.844,1.922-5.141,4.516-5.922
		c2.594,0.781,4.516,3.078,4.516,5.922c0,0,0,3.063,0,14.25c0,8.781,5.578,11.547,11.172,11.547s14.297,2.063,23.547-4.094
		c9.234-6.172,8.938-15.797,8.938-27.734c0-34.906-2.469-45.859,19.297-39.578c36.781,10.984,82.062-5.625,86.171-63.141
		l6.172-78.047C470.601,86.268,374.851,0.002,256.007,0.002z M214.429,216.127l-3.672,25.781
		c-2.828,27.078-27.094,46.734-54.172,43.875c-27.078-2.844-46.719-27.094-43.891-54.172l3.672-25.781
		c2.844-27.078,27.094-46.734,54.188-43.875C197.617,164.783,217.273,189.033,214.429,216.127z M272.023,341.174
		c-9.609-3.203-16.016-11.219-16.016-11.219s-6.422,8.016-16.031,11.219s-16.016-6.406-12.813-12.828
		c3.203-6.406,20.828-44.875,28.844-44.875c8,0,25.641,38.469,28.844,44.875C288.054,334.768,281.648,344.377,272.023,341.174z
		 M355.429,285.783c-27.094,2.859-51.344-16.797-54.188-43.875l-3.672-25.781c-2.828-27.094,16.813-51.344,43.891-54.172
		c27.094-2.859,51.328,16.797,54.172,43.875l3.672,25.781C402.148,258.689,382.492,282.939,355.429,285.783z" style="fill: rgb(75, 75, 75);"></path>
</g>
</svg>
